<?xml version="1.0" standalone="no"?>
<!DOCTYPE svg PUBLIC "-//W3C//DTD SVG 1.1//EN" "http://www.w3.org/Graphics/SVG/1.1/DTD/svg11.dtd" >
<svg xmlns="http://www.w3.org/2000/svg">
<metadata></metadata>
<defs>
<font id="dharma_gothic_cthin" horiz-adv-x="339" >
<font-face units-per-em="2048" ascent="1638" descent="-410" />
<missing-glyph horiz-adv-x="176" />
<glyph unicode="&#xfb01;" horiz-adv-x="333" d="M12 1176v28h54v127q0 59 18.5 81t71.5 22h18v-29h-12q-39 0 -51.5 -13t-12.5 -65v-123h76v-28h-76v-1176h-32v1176h-54zM244 0v1204h32v-1204h-32zM244 1358v76h32v-76h-32z" />
<glyph unicode="&#xfb02;" horiz-adv-x="333" d="M12 1176v28h54v127q0 59 18.5 81t71.5 22h18v-29h-12q-39 0 -51.5 -13t-12.5 -65v-123h76v-28h-76v-1176h-32v1176h-54zM244 0v1434h32v-1434h-32z" />
<glyph horiz-adv-x="0" />
<glyph unicode="&#xd;" horiz-adv-x="682" />
<glyph unicode=" "  horiz-adv-x="176" />
<glyph unicode="&#x09;" horiz-adv-x="176" />
<glyph unicode="&#xa0;" horiz-adv-x="176" />
<glyph unicode="!" horiz-adv-x="153" d="M57 0v72h39v-72h-39zM59 977v457h35v-457l-10 -834h-14z" />
<glyph unicode="&#x22;" horiz-adv-x="206" d="M35 1309v125h33v-125l-7 -244h-18zM137 1309v125h33v-125l-6 -244h-19z" />
<glyph unicode="#" d="M18 309v29h43l29 807h-45v29h45l10 260h33l-10 -260h121l10 260h33l-11 -260h46v-29h-46l-28 -807h45v-29h-47l-10 -309h-33l10 309h-121l-10 -309h-33l10 309h-41zM94 338h121l29 807h-121z" />
<glyph unicode="$" d="M55 147v402h31v-389q0 -53 11.5 -70.5t56.5 -17.5h32q45 0 56.5 17.5t11.5 70.5v266q0 85 -15.5 132.5t-74.5 139.5q-71 111 -90 166t-19 148v274q0 63 20 85t77 22h6v92h28v-92h4q57 0 77 -22t20 -85v-387h-31v375q0 53 -11.5 70.5t-56.5 17.5h-32q-45 0 -56.5 -17.5 t-11.5 -70.5v-268q0 -85 16 -133t74 -140q71 -111 90 -165.5t19 -147.5v-273q0 -63 -20 -84.5t-77 -21.5h-4v-92h-28v92h-6q-57 0 -77 21.5t-20 84.5z" />
<glyph unicode="%" horiz-adv-x="585" d="M43 633v731q0 46 15.5 63t56.5 17h32q41 0 55.5 -17t14.5 -63v-731q0 -46 -14.5 -62t-55.5 -16h-32q-42 0 -57 16.5t-15 61.5zM72 645q0 -38 7.5 -50.5t39.5 -12.5h22q32 0 39.5 12.5t7.5 50.5v709q0 38 -7.5 50.5t-39.5 12.5h-22q-32 0 -39.5 -12.5t-7.5 -50.5v-709z M188 0l185 1434h24l-184 -1434h-25zM369 68v731q0 46 15 63t56 17h33q41 0 55.5 -17t14.5 -63v-731q0 -46 -14.5 -62t-55.5 -16h-33q-41 0 -56 16t-15 62zM397 80q0 -39 7.5 -51.5t39.5 -12.5h23q32 0 39.5 12.5t7.5 51.5v708q0 39 -7.5 51.5t-39.5 12.5h-23 q-32 0 -39.5 -12.5t-7.5 -51.5v-708z" />
<glyph unicode="&#x26;" horiz-adv-x="368" d="M51 92v545q0 52 12.5 76.5t45.5 31.5q-33 7 -45.5 32t-12.5 79v463q0 67 21.5 91t83.5 24h98v-31h-94q-50 0 -62 -18.5t-12 -77.5v-449q0 -59 12 -77.5t62 -18.5h94v452h33v-452h69v-31h-69v-590q0 -84 14 -141h-33q-10 23 -10 66q-16 -76 -94 -76h-21q-55 0 -73.5 21.5 t-18.5 80.5zM86 106q0 -52 10.5 -70t50.5 -18h29q78 0 78 115v598h-94q-50 0 -62 -19t-12 -77v-529z" />
<glyph unicode="'" horiz-adv-x="169" d="M68 1309v125h32v-125l-6 -244h-18z" />
<glyph unicode="(" horiz-adv-x="217" d="M57 -41v1393q0 59 19 80.5t74 21.5h36v-29h-30q-43 0 -54.5 -17.5t-11.5 -70.5v-1364q0 -53 11.5 -70.5t54.5 -17.5h30v-28h-36q-55 0 -74 21.5t-19 80.5z" />
<glyph unicode=")" horiz-adv-x="217" d="M31 -115h30q43 0 54.5 17.5t11.5 70.5v1364q0 53 -11.5 70.5t-54.5 17.5h-30v29h37q55 0 73.5 -21.5t18.5 -80.5v-1393q0 -59 -18.5 -80.5t-73.5 -21.5h-37v28z" />
<glyph unicode="*" horiz-adv-x="288" d="M14 1235l119 57l-119 58l17 26l106 -73l-8 131h31l-10 -131l108 73l16 -26l-120 -58l120 -57l-16 -27l-108 76l10 -133h-31l8 133l-106 -76z" />
<glyph unicode="+" d="M53 700v31h103v109h30v-109h101v-31h-101v-106h-30v106h-103z" />
<glyph unicode="," horiz-adv-x="169" d="M63 -104l21 104h-18v72h38v-72l-32 -106z" />
<glyph unicode="-" horiz-adv-x="219" d="M33 567v33h153v-33h-153z" />
<glyph unicode="." horiz-adv-x="169" d="M66 0v72h38v-72h-38z" />
<glyph unicode="/" d="M35 -41l239 1516h31l-239 -1516h-31z" />
<glyph unicode="0" d="M53 96v1241q0 62 20 84.5t77 22.5h40q57 0 77 -22.5t20 -84.5v-1241q0 -62 -20 -84t-77 -22h-40q-57 0 -77 22t-20 84zM86 109q0 -53 11.5 -71t56.5 -18h32q45 0 56.5 18t11.5 71v1216q0 53 -11.5 70.5t-56.5 17.5h-32q-45 0 -56.5 -17.5t-11.5 -70.5v-1216z" />
<glyph unicode="1" horiz-adv-x="155" d="M63 0v1417q6 0 11.5 5t5.5 12h16v-1434h-33z" />
<glyph unicode="2" horiz-adv-x="327" d="M51 0v256q0 127 18.5 203t88.5 211q63 122 78.5 189t15.5 190v276q0 53 -11.5 70.5t-56.5 17.5h-32q-45 0 -56.5 -17.5t-11.5 -70.5v-469h-31v481q0 62 20 84.5t77 22.5h38q57 0 77 -22.5t20 -84.5v-284q0 -127 -18.5 -203t-88.5 -211q-63 -122 -78.5 -189t-15.5 -190 v-229h207v-31h-240z" />
<glyph unicode="3" horiz-adv-x="333" d="M51 96v520h31v-507q0 -53 11.5 -71t56.5 -18h32q45 0 56.5 18t11.5 71v542q0 53 -11.5 70.5t-56.5 17.5h-100v31h100q45 0 56.5 17.5t11.5 70.5v467q0 53 -11.5 70.5t-56.5 17.5h-32q-45 0 -56.5 -17.5t-11.5 -70.5v-432h-31v444q0 62 20.5 84.5t78.5 22.5h36 q57 0 77 -22.5t20 -84.5v-481q0 -50 -13 -73t-45 -29q32 -6 45 -28.5t13 -72.5v-557q0 -62 -20 -84t-77 -22h-36q-58 0 -78.5 22t-20.5 84z" />
<glyph unicode="4" horiz-adv-x="313" d="M16 305v31l181 1098h36v-1098h74v-31h-74v-305h-32v305h-185zM45 336h156v481q0 234 4 524q-19 -138 -80 -520z" />
<glyph unicode="5" horiz-adv-x="333" d="M53 96v520h31v-507q0 -53 12 -71t56 -18h32q45 0 56.5 18t11.5 71v876q0 48 -10 65t-49 17h-33q-76 0 -76 -109v-208h-31v684h221v-31h-190v-361q20 54 86 54h27q51 0 69.5 -21.5t18.5 -77.5v-901q0 -62 -20 -84t-77 -22h-38q-57 0 -77 22t-20 84z" />
<glyph unicode="6" horiz-adv-x="337" d="M53 96v1241q0 62 20 84.5t77 22.5h38q57 0 77 -22.5t20 -84.5v-260h-31v248q0 53 -11.5 70.5t-56.5 17.5h-32q-45 0 -56.5 -17.5t-11.5 -70.5v-383q19 53 86 53h27q51 0 69.5 -21t18.5 -77v-801q0 -62 -20 -84t-77 -22h-40q-57 0 -77 22t-20 84zM86 109q0 -53 11.5 -71 t56.5 -18h32q45 0 56.5 18t11.5 71v776q0 48 -10 65t-49 17h-33q-76 0 -76 -109v-749z" />
<glyph unicode="7" horiz-adv-x="262" d="M12 1403v31h238v-27l-141 -1407h-35l145 1403h-207z" />
<glyph unicode="8" horiz-adv-x="335" d="M51 96v578q0 51 11 72.5t44 27.5q-33 6 -44 28.5t-11 74.5v460q0 63 19 85t77 22h41q57 0 77 -22.5t20 -84.5v-460q0 -50 -13 -73.5t-45 -29.5q32 -6 45 -28t13 -72v-578q0 -62 -20 -84t-77 -22h-41q-58 0 -77 22t-19 84zM84 109q0 -53 11.5 -71t56.5 -18h32 q45 0 56.5 18t11.5 71v563q0 53 -11.5 70.5t-56.5 17.5h-32q-45 0 -56.5 -17.5t-11.5 -70.5v-563zM84 879q0 -53 11.5 -70.5t56.5 -17.5h32q45 0 56.5 17.5t11.5 70.5v446q0 53 -11.5 70.5t-56.5 17.5h-32q-45 0 -56.5 -17.5t-11.5 -70.5v-446z" />
<glyph unicode="9" horiz-adv-x="337" d="M51 557v780q0 62 19.5 84.5t76.5 22.5h41q57 0 77 -22.5t20 -84.5v-1241q0 -62 -20 -84t-77 -22h-38q-57 0 -77 22t-20 84v281h31v-268q0 -53 11.5 -71t56.5 -18h32q45 0 56.5 18t11.5 71v403q-22 -53 -86 -53h-27q-51 0 -69.5 21t-18.5 77zM84 569q0 -48 10 -65t49 -17 h33q76 0 76 109v729q0 53 -11.5 70.5t-56.5 17.5h-32q-45 0 -56.5 -17.5t-11.5 -70.5v-756z" />
<glyph unicode=":" horiz-adv-x="169" d="M66 0v72h38v-72h-38zM66 852v72h38v-72h-38z" />
<glyph unicode=";" horiz-adv-x="169" d="M63 -104l21 104h-18v72h38v-72l-32 -106zM66 852v72h38v-72h-38z" />
<glyph unicode="&#x3c;" d="M53 717l178 112h56l-181 -112l181 -113h-56z" />
<glyph unicode="=" d="M53 621v30h234v-30h-234zM53 780v31h234v-31h-234z" />
<glyph unicode="&#x3e;" d="M53 604l180 113l-180 112h56l178 -112l-178 -113h-56z" />
<glyph unicode="?" horiz-adv-x="296" d="M33 856v481q0 62 19.5 84.5t76.5 22.5h39q57 0 76.5 -22.5t19.5 -84.5v-288q0 -83 -13.5 -152t-32 -121.5t-37.5 -107t-32.5 -134t-13.5 -176.5v-168h-24v164q0 99 12.5 179.5t30 135.5t35 107t30 120t12.5 148v281q0 53 -11 70.5t-56 17.5h-33q-45 0 -56.5 -17.5 t-11.5 -70.5v-469h-30zM102 0v119h41v-119h-41z" />
<glyph unicode="@" horiz-adv-x="542" d="M53 205v807q0 88 10.5 151.5t28.5 102.5t46.5 61.5t60 30.5t73.5 8h17q113 0 156.5 -86t43.5 -305v-637q0 -67 -7.5 -116.5t-19.5 -77.5t-29.5 -45t-34 -22t-36.5 -5h-12q-52 0 -55 51q-14 -51 -64 -51h-8q-50 0 -47 61l33 959q3 55 55 55h12q23 0 37 -14.5t17 -38.5 l8 45h18l-34 -1004q0 -33 28 -33h15q14 0 25 3t25 17t23.5 38t16 69.5t6.5 108.5v637q0 204 -37.5 283t-134.5 79h-17q-47 0 -78.5 -12.5t-57 -46t-38 -99.5t-12.5 -167v-809q0 -65 8.5 -114.5t25 -80.5t35.5 -51t46.5 -29.5t50 -12.5t53.5 -3q57 0 86 14v-28 q-35 -15 -86 -15q-43 0 -76 6t-68 26t-57 54t-36.5 94t-14.5 142zM209 131q0 -29 18 -29h11q48 0 51 66l30 889q1 31 -10 47t-26 16h-11q-17 0 -23.5 -7.5t-6.5 -25.5z" />
<glyph unicode="A" horiz-adv-x="344" d="M31 0l116 1434h46l118 -1434h-35l-20 246h-176l-19 -246h-30zM82 274h172l-45 545q-36 446 -41 557q-5 -112 -41 -557z" />
<glyph unicode="B" horiz-adv-x="368" d="M61 0v1434h148q61 0 82.5 -23.5t21.5 -91.5v-455q0 -53 -12.5 -78t-44.5 -32q32 -7 44.5 -32t12.5 -77v-530q0 -68 -21.5 -91.5t-82.5 -23.5h-148zM96 31h109q50 0 62 18.5t12 77.5v516q0 58 -12 77t-62 19h-109v-708zM96 770h109q50 0 62 18.5t12 77.5v441 q0 59 -12 77.5t-62 18.5h-109v-633z" />
<glyph unicode="C" horiz-adv-x="362" d="M57 104v1225q0 67 21.5 91t83.5 24h41q61 0 82.5 -23.5t21.5 -91.5v-452h-33v440q0 60 -11.5 78t-61.5 18h-35q-50 0 -62 -18.5t-12 -77.5v-1200q0 -60 12 -78.5t62 -18.5h35q50 0 61.5 18.5t11.5 78.5v501h33v-514q0 -67 -21 -90.5t-83 -23.5h-41q-62 0 -83.5 23.5 t-21.5 90.5z" />
<glyph unicode="D" horiz-adv-x="370" d="M61 0v1434h148q61 0 82.5 -23.5t21.5 -91.5v-1204q0 -68 -21.5 -91.5t-82.5 -23.5h-148zM96 31h109q50 0 62 18.5t12 77.5v1180q0 59 -12 77.5t-62 18.5h-109v-1372z" />
<glyph unicode="E" horiz-adv-x="284" d="M61 0v1434h193v-31h-158v-633h140v-31h-140v-708h158v-31h-193z" />
<glyph unicode="F" horiz-adv-x="268" d="M61 0v1434h189v-31h-154v-653h135v-31h-135v-719h-35z" />
<glyph unicode="G" horiz-adv-x="362" d="M57 104v1225q0 67 21.5 91t83.5 24h41q61 0 82.5 -23.5t21.5 -91.5v-452h-33v440q0 60 -11.5 78t-61.5 18h-35q-50 0 -62 -18.5t-12 -77.5v-1200q0 -60 12 -78.5t62 -18.5h35q50 0 61.5 18.5t11.5 78.5v577h-90v31h123v-621q0 -67 -21 -90.5t-83 -23.5h-41 q-62 0 -83.5 23.5t-21.5 90.5z" />
<glyph unicode="H" horiz-adv-x="374" d="M61 0v1434h35v-664h183v664h34v-1434h-34v739h-183v-739h-35z" />
<glyph unicode="I" horiz-adv-x="157" d="M61 0v1434h35v-1434h-35z" />
<glyph unicode="J" horiz-adv-x="335" d="M27 104v514h32v-501q0 -60 12 -78.5t62 -18.5h35q50 0 62 18.5t12 78.5v1317h34v-1330q0 -67 -21 -90.5t-83 -23.5h-41q-62 0 -83 23.5t-21 90.5z" />
<glyph unicode="K" horiz-adv-x="350" d="M61 0v1434h35v-672q6 23 33 108l176 564h33l-215 -676l219 -758h-37l-182 647q-4 17 -13.5 47t-13.5 49v-743h-35z" />
<glyph unicode="L" horiz-adv-x="260" d="M61 0v1434h35v-1403h146v-31h-181z" />
<glyph unicode="M" horiz-adv-x="473" d="M61 0v1434h50l104 -1096q19 -200 23 -266q3 38 10.5 128.5t11.5 137.5l102 1096h50v-1434h-35v1096q0 101 4 237q-5 -47 -11.5 -137t-7.5 -100l-102 -1096h-47l-104 1096q0 4 -8 100t-13 145q4 -140 4 -245v-1096h-31z" />
<glyph unicode="N" horiz-adv-x="380" d="M61 0v1434h48l157 -1096q21 -159 27 -225q-4 196 -4 223v1098h30v-1434h-38l-166 1153q-23 172 -27 221q4 -132 4 -219v-1155h-31z" />
<glyph unicode="O" horiz-adv-x="366" d="M57 104v1225q0 67 21.5 91t83.5 24h43q61 0 82.5 -23.5t21.5 -91.5v-1225q0 -67 -21 -90.5t-83 -23.5h-43q-62 0 -83.5 23.5t-21.5 90.5zM92 117q0 -60 12 -78.5t62 -18.5h35q50 0 61.5 18.5t11.5 78.5v1200q0 60 -11.5 78t-61.5 18h-35q-50 0 -62 -18.5t-12 -77.5v-1200 z" />
<glyph unicode="P" horiz-adv-x="329" d="M61 0v1434h138q61 0 82.5 -23.5t21.5 -91.5v-596q0 -66 -21.5 -89.5t-82.5 -23.5h-103v-610h-35zM96 639h99q49 0 61 18.5t12 77.5v572q0 60 -11.5 78t-61.5 18h-99v-764z" />
<glyph unicode="Q" horiz-adv-x="366" d="M57 104v1225q0 67 21.5 91t83.5 24h43q61 0 82.5 -23.5t21.5 -91.5v-1225q0 -66 -20.5 -89t-79.5 -25v-76q0 -44 15 -62t50 -18h17v-24h-17q-50 0 -75 20t-25 86v74h-12q-62 0 -83.5 23.5t-21.5 90.5zM92 117q0 -60 12 -78.5t62 -18.5h35q50 0 61.5 18.5t11.5 78.5v1200 q0 60 -11.5 78t-61.5 18h-35q-50 0 -62 -18.5t-12 -77.5v-1200z" />
<glyph unicode="R" horiz-adv-x="370" d="M61 0v1434h148q61 0 82.5 -23.5t21.5 -91.5v-477q0 -52 -11.5 -76t-41.5 -33q30 -7 41.5 -31.5t11.5 -76.5v-488q0 -86 13 -137h-37q-10 25 -10 121v497q0 58 -14 79.5t-64 21.5h-105v-719h-35zM96 750h109q50 0 62 18.5t12 77.5v461q0 59 -12 77.5t-62 18.5h-109v-653z " />
<glyph unicode="S" horiz-adv-x="352" d="M55 104v474h33v-461q0 -60 12 -78.5t62 -18.5h26q50 0 62 18.5t12 78.5v313q0 97 -15.5 145.5t-78.5 141.5q-75 112 -94 168.5t-19 163.5v280q0 67 21.5 91t83.5 24h33q61 0 82.5 -23.5t21.5 -91.5v-432h-33v420q0 59 -12 77.5t-62 18.5h-26q-50 0 -62 -18.5t-12 -77.5 v-277q0 -97 15.5 -145t78.5 -141q75 -112 94 -168.5t19 -163.5v-318q0 -68 -20.5 -91t-83.5 -23h-33q-62 0 -83.5 23.5t-21.5 90.5z" />
<glyph unicode="T" horiz-adv-x="235" d="M12 1403v31h211v-31h-88v-1403h-35v1403h-88z" />
<glyph unicode="U" horiz-adv-x="368" d="M59 104v1330h35v-1317q0 -60 12 -78.5t62 -18.5h35q50 0 61.5 18.5t11.5 78.5v1317h33v-1330q0 -67 -21 -90.5t-83 -23.5h-41q-62 0 -83.5 23.5t-21.5 90.5z" />
<glyph unicode="V" horiz-adv-x="344" d="M33 1434h35l67 -820q36 -460 41 -569q5 109 41 569l66 820h30l-116 -1434h-45z" />
<glyph unicode="W" horiz-adv-x="509" d="M33 1434h35l57 -820q22 -313 27 -512q4 178 28 512l58 820h41l57 -820q25 -355 29 -512q3 114 28 510l56 822h30l-98 -1434h-37l-59 858q-25 376 -29 543q-4 -167 -29 -543l-59 -858h-37z" />
<glyph unicode="X" horiz-adv-x="344" d="M33 0l117 752l-111 682h35l49 -304q48 -304 53 -350q11 94 51 350l47 304h31l-108 -682l114 -752h-35l-55 365q-40 257 -51 356q-15 -140 -49 -356l-55 -365h-33z" />
<glyph unicode="Y" horiz-adv-x="309" d="M16 1434h35l62 -437q34 -246 45 -391q9 112 47 391l59 437h31l-121 -887v-547h-35v547z" />
<glyph unicode="Z" horiz-adv-x="274" d="M29 0v29l180 1374h-170v31h205v-29l-181 -1374h181v-31h-215z" />
<glyph unicode="[" horiz-adv-x="221" d="M61 -143v1597h129v-29h-96v-1540h96v-28h-129z" />
<glyph unicode="\" d="M35 1475h31l239 -1516h-31z" />
<glyph unicode="]" horiz-adv-x="221" d="M31 -115h96v1540h-96v29h129v-1597h-129v28z" />
<glyph unicode="^" d="M53 1178l103 256h28l103 -256h-35l-82 215l-82 -215h-35z" />
<glyph unicode="_" horiz-adv-x="1024" d="M0 -25h1024v-28h-1024v28z" />
<glyph unicode="`" horiz-adv-x="169" d="M27 1399h43l63 -146h-22z" />
<glyph unicode="a" horiz-adv-x="325" d="M47 88v371q0 79 18 118t76 87q66 59 81.5 87t15.5 91v256q0 53 -11 70.5t-53 17.5h-29q-42 0 -52.5 -17.5t-10.5 -70.5v-301h-31v315q0 59 18.5 80.5t71.5 21.5h37q55 0 73.5 -21.5t18.5 -80.5v-1008q0 -67 6 -104h-28q-6 15 -6 53q-19 -63 -90 -63h-17q-51 0 -69.5 21 t-18.5 77zM80 100q0 -48 10 -65t49 -17h23q76 0 76 109v602q-14 -31 -74 -82q-56 -48 -70 -81t-14 -105v-361z" />
<glyph unicode="b" horiz-adv-x="337" d="M57 0v1434h33v-273q19 53 86 53h21q51 0 69.5 -21t18.5 -77v-1028q0 -56 -18.5 -77t-69.5 -21h-21q-74 0 -90 65l-6 -55h-23zM90 127q0 -109 76 -109h27q39 0 49 17t10 65v1004q0 48 -10 65t-49 17h-27q-76 0 -76 -109v-950z" />
<glyph unicode="c" horiz-adv-x="329" d="M53 92v1020q0 59 18.5 80.5t73.5 21.5h41q55 0 74 -21.5t19 -80.5v-377h-31v363q0 53 -11 70.5t-53 17.5h-34q-42 0 -53 -17.5t-11 -70.5v-992q0 -53 11 -70.5t53 -17.5h34q42 0 53 17.5t11 70.5v383h31v-397q0 -59 -19 -80.5t-74 -21.5h-41q-55 0 -73.5 21.5t-18.5 80.5 z" />
<glyph unicode="d" horiz-adv-x="337" d="M53 88v1028q0 56 18.5 77t69.5 21h21q64 0 86 -53v273h33v-1330q0 -67 6 -104h-29q-6 15 -6 53q-19 -63 -90 -63h-21q-51 0 -69.5 21t-18.5 77zM86 100q0 -48 10 -65t49 -17h27q76 0 76 109v950q0 109 -76 109h-27q-39 0 -49 -17t-10 -65v-1004z" />
<glyph unicode="e" horiz-adv-x="329" d="M53 92v1020q0 59 18.5 80.5t73.5 21.5h41q55 0 74 -21.5t19 -80.5v-514h-193v-492q0 -53 11 -70.5t53 -17.5h34q42 0 53 17.5t11 70.5v300h31v-314q0 -59 -19 -80.5t-74 -21.5h-41q-55 0 -73.5 21.5t-18.5 80.5zM86 627h162v471q0 53 -11 70.5t-53 17.5h-34 q-42 0 -53 -17.5t-11 -70.5v-471z" />
<glyph unicode="f" horiz-adv-x="186" d="M12 1176v28h54v127q0 59 18.5 81t71.5 22h18v-29h-12q-39 0 -51.5 -13t-12.5 -65v-123h76v-28h-76v-1176h-32v1176h-54z" />
<glyph unicode="g" horiz-adv-x="321" d="M45 -86q0 60 45 74q-33 15 -33 69v13q0 46 31 61q-22 9 -30.5 31t-8.5 65v885q0 59 18.5 80.5t73.5 21.5h39q66 0 82 -36q9 36 35 36h12v-28h-10q-23 0 -23 -33v-926q0 -59 -18.5 -80.5t-73.5 -21.5h-49q-30 0 -41.5 -13t-11.5 -46v-7q0 -27 15.5 -38t47.5 -11h60 q25 0 40.5 -2.5t32.5 -10.5t25 -27t8 -48v-31q0 -54 -25 -73t-79 -19h-74q-88 0 -88 86v29zM76 -84v-25q0 -36 15 -49.5t50 -13.5h64q41 0 57.5 12t16.5 51v31q0 32 -17.5 43.5t-56.5 11.5h-72q-32 0 -44.5 -13.5t-12.5 -47.5zM82 242q0 -53 10.5 -70.5t52.5 -17.5h35 q42 0 53 17.5t11 70.5v856q0 53 -11 70.5t-53 17.5h-35q-42 0 -52.5 -17.5t-10.5 -70.5v-856z" />
<glyph unicode="h" d="M57 0v1434h33v-273q19 53 86 53h21q51 0 69.5 -21t18.5 -77v-1116h-33v1104q0 48 -10 65t-49 17h-27q-76 0 -76 -109v-1077h-33z" />
<glyph unicode="i" horiz-adv-x="147" d="M57 0v1204h33v-1204h-33zM57 1358v76h33v-76h-33z" />
<glyph unicode="j" horiz-adv-x="147" d="M-12 -162h8q38 0 49.5 13t11.5 65v1288h33v-1292q0 -60 -17.5 -81t-70.5 -21h-14v28zM57 1358v76h33v-76h-33z" />
<glyph unicode="k" horiz-adv-x="319" d="M57 0v1434h33v-781q7 23 20 62.5t19 60.5l135 428h31l-178 -555l190 -649h-35l-149 516q-31 108 -33 119v-635h-33z" />
<glyph unicode="l" horiz-adv-x="147" d="M57 0v1434h33v-1434h-33z" />
<glyph unicode="m" horiz-adv-x="509" d="M57 0v1204h29v-55q20 65 90 65h8q38 0 57.5 -12t26.5 -41q19 53 86 53h13q51 0 69.5 -21t18.5 -77v-1116h-33v1104q0 48 -10.5 65t-49.5 17h-14q-76 0 -76 -109v-1077h-32v1104q0 48 -10.5 65t-49.5 17h-14q-76 0 -76 -107v-1079h-33z" />
<glyph unicode="n" d="M57 0v1204h29v-55q20 65 90 65h21q51 0 69.5 -21t18.5 -77v-1116h-33v1104q0 48 -10 65t-49 17h-27q-76 0 -76 -109v-1077h-33z" />
<glyph unicode="o" horiz-adv-x="333" d="M53 92v1020q0 59 18.5 80.5t73.5 21.5h43q55 0 74 -21.5t19 -80.5v-1020q0 -59 -19 -80.5t-74 -21.5h-43q-55 0 -73.5 21.5t-18.5 80.5zM86 106q0 -53 11 -70.5t53 -17.5h34q42 0 53 17.5t11 70.5v992q0 53 -11 70.5t-53 17.5h-34q-42 0 -53 -17.5t-11 -70.5v-992z" />
<glyph unicode="p" horiz-adv-x="337" d="M57 -190v1394h29v-55q20 65 90 65h21q51 0 69.5 -21t18.5 -77v-1028q0 -56 -18.5 -77t-69.5 -21h-21q-67 0 -86 53v-233h-33zM90 127q0 -109 76 -109h27q39 0 49 17t10 65v1004q0 48 -10 65t-49 17h-27q-76 0 -76 -109v-950z" />
<glyph unicode="q" horiz-adv-x="337" d="M53 88v1028q0 56 18.5 77t69.5 21h21q70 0 90 -65l6 55h23v-1394h-33v233q-22 -53 -86 -53h-21q-51 0 -69.5 21t-18.5 77zM86 100q0 -48 10 -65t49 -17h27q76 0 76 109v950q0 109 -76 109h-27q-39 0 -49 -17t-10 -65v-1004z" />
<glyph unicode="r" horiz-adv-x="188" d="M57 0v1204h29v-67q16 77 80 77h10v-32h-10q-40 0 -58 -31.5t-18 -101.5v-1049h-33z" />
<glyph unicode="s" horiz-adv-x="319" d="M47 92v336h31v-322q0 -53 11 -70.5t54 -17.5h31q43 0 54.5 17.5t11.5 70.5v244q0 83 -15 127.5t-73 116.5q-68 85 -86.5 136t-18.5 142v240q0 59 18.5 80.5t73.5 21.5h41q55 0 73.5 -21.5t18.5 -80.5v-315h-30v301q0 53 -11 70.5t-53 17.5h-35q-42 0 -52.5 -17.5 t-10.5 -70.5v-226q0 -83 15 -128t73 -117q68 -85 86 -136t18 -143v-256q0 -59 -18.5 -80.5t-73.5 -21.5h-41q-55 0 -73.5 21.5t-18.5 80.5z" />
<glyph unicode="t" horiz-adv-x="180" d="M12 1176v28h54v174h32v-174h70v-28h-70v-1035q0 -91 17 -141h-37q-12 30 -12 125v1051h-54z" />
<glyph unicode="u" d="M55 88v1116h33v-1104q0 -48 10 -65t49 -17h27q76 0 76 109v1077h33v-1100q0 -67 6 -104h-29q-6 15 -6 53q-19 -63 -90 -63h-21q-51 0 -69.5 21t-18.5 77z" />
<glyph unicode="v" horiz-adv-x="294" d="M14 1204h33l64 -661q34 -350 39 -488q5 154 38 488l64 661h29l-115 -1204h-39z" />
<glyph unicode="w" horiz-adv-x="471" d="M16 1204h33l49 -661q22 -278 29 -488q1 86 33 488l59 661h35l59 -661q29 -369 33 -488q3 151 29 488l51 661h29l-90 -1204h-39l-64 766q-25 309 -26 383q-3 -82 -27 -383l-66 -766h-39z" />
<glyph unicode="x" horiz-adv-x="307" d="M20 0l109 633l-102 571h32l17 -92q75 -422 80 -463q5 41 80 463l16 92h29l-103 -571l109 -633h-33l-25 139q-52 294 -77 477q-22 -158 -78 -477l-25 -139h-29z" />
<glyph unicode="y" horiz-adv-x="294" d="M14 1204h33l64 -661q34 -350 39 -488q5 154 38 488l64 661h29l-123 -1296q-8 -82 -80 -82h-41v29h39q25 0 35.5 13t13.5 42l4 53z" />
<glyph unicode="z" horiz-adv-x="260" d="M31 0v27l168 1149h-158v28h190v-26l-168 -1149h168v-29h-200z" />
<glyph unicode="{" horiz-adv-x="243" d="M18 641v29h5q38 0 49.5 14.5t11.5 65.5v602q0 59 18.5 80.5t73.5 21.5h37v-29h-31q-42 0 -53.5 -17.5t-11.5 -70.5v-585q0 -44 -9.5 -67t-33.5 -30q24 -9 33.5 -30.5t9.5 -65.5v-586q0 -53 11.5 -70.5t53.5 -17.5h31v-28h-37q-55 0 -73.5 21.5t-18.5 80.5v602 q0 51 -11.5 65.5t-49.5 14.5h-5z" />
<glyph unicode="|" d="M154 -190v1624h32v-1624h-32z" />
<glyph unicode="}" horiz-adv-x="243" d="M31 -115h30q42 0 54 18t12 70v586q0 44 9.5 65.5t33.5 30.5q-24 7 -33.5 30t-9.5 67v585q0 52 -12 70t-54 18h-30v29h37q55 0 73.5 -21.5t18.5 -80.5v-602q0 -51 11.5 -65.5t49.5 -14.5h4v-29h-4q-38 0 -49.5 -14.5t-11.5 -65.5v-602q0 -59 -18.5 -80.5t-73.5 -21.5h-37 v28z" />
<glyph unicode="~" d="M53 674v43q26 41 60 41q21 0 59.5 -23.5t56.5 -23.5q34 0 58 49v-45q-26 -41 -60 -41q-21 0 -60 24.5t-58 24.5q-32 0 -56 -49z" />
<glyph unicode="&#xa1;" horiz-adv-x="153" d="M57 1171v72h39v-72h-39zM59 -190v456l11 834h14l10 -834v-456h-35z" />
<glyph unicode="&#xa2;" d="M57 207v1020q0 59 19 80.5t74 21.5h6v105h28v-105h6q55 0 74 -21.5t19 -80.5v-377h-31v362q0 53 -11 70.5t-53 17.5h-34q-42 0 -53 -17.5t-11 -70.5v-991q0 -53 11 -70.5t53 -17.5h34q42 0 53 17.5t11 70.5v383h31v-397q0 -59 -19.5 -81t-73.5 -22h-6v-104h-28v104h-6 q-55 0 -74 22t-19 81z" />
<glyph unicode="&#xa3;" d="M47 0v31q81 170 84 403h-63v31h63q-2 54 -21.5 154t-37 228t-17.5 263v227q0 62 20 84.5t77 22.5h38q57 0 77 -22.5t20 -84.5v-501h-31v489q0 53 -11.5 70.5t-56.5 17.5h-32q-45 0 -56.5 -17.5t-11.5 -70.5v-217q0 -131 17 -258t36 -228t21 -157h98v-31h-98 q-3 -224 -84 -403h203v-31h-234z" />
<glyph unicode="&#xa4;" d="M43 612l53 50q-18 21 -18 55t18 55l-53 49l20 21l50 -51q23 20 57 20t57 -20l49 51l21 -21l-53 -49q18 -21 18 -55t-18 -55l53 -50l-21 -20l-49 51q-23 -20 -57 -20t-57 20l-50 -51zM100 717q0 -29 20.5 -49.5t49.5 -20.5t49.5 20.5t20.5 49.5t-20.5 49t-49.5 20 t-49.5 -20t-20.5 -49z" />
<glyph unicode="&#xa5;" d="M39 1434h33l57 -441q31 -226 41 -387q4 58 12.5 128t19 153t13.5 110l55 437h31l-115 -889v-15h109v-28h-109v-109h109v-28h-109v-365h-32v365h-109v28h109v109h-109v28h109v15z" />
<glyph unicode="&#xa6;" d="M154 -190v757h32v-757h-32zM154 676v758h32v-758h-32z" />
<glyph unicode="&#xa7;" horiz-adv-x="319" d="M47 -53v274h31v-260q0 -53 10.5 -70.5t52.5 -17.5h35q42 0 53 17.5t11 70.5v131q0 77 -16 123t-70 121q-67 93 -87 143t-20 133v222q0 68 16 96.5t58 32.5q-45 67 -59.5 113t-14.5 120v145q0 59 19 81t73 22h41q54 0 73 -22t19 -81v-274h-30v260q0 53 -11 70.5t-53 17.5 h-35q-42 0 -52.5 -17.5t-10.5 -70.5v-131q0 -77 16 -123t70 -121q67 -92 86.5 -142t19.5 -134v-221q0 -70 -15.5 -98t-57.5 -31q45 -66 59 -112.5t14 -121.5v-145q0 -59 -19 -81t-73 -22h-41q-54 0 -73 22t-19 81zM80 612q0 -76 18 -123.5t80 -134.5q40 0 51 23t11 88v211 q0 75 -18 123t-81 135q-40 -1 -50.5 -24t-10.5 -87v-211z" />
<glyph unicode="&#xa8;" horiz-adv-x="169" d="M14 1298v52h37v-52h-37zM119 1298v52h37v-52h-37z" />
<glyph unicode="&#xa9;" horiz-adv-x="550" d="M53 188v1057q0 104 40 151.5t143 47.5h79q104 0 143.5 -47t39.5 -152v-1057q0 -105 -39 -151.5t-144 -46.5h-79q-103 0 -143 47t-40 151zM86 188q0 -95 32 -132.5t120 -37.5h77q88 0 120 37.5t32 132.5v1057q0 95 -32 132.5t-120 37.5h-77q-88 0 -120 -37.5t-32 -132.5 v-1057zM190 205v1024q0 44 16 60t58 16h23q42 0 57.5 -16t15.5 -60v-383h-28v377q0 32 -9.5 43.5t-39.5 11.5h-13q-30 0 -39.5 -11.5t-9.5 -43.5v-1012q0 -32 9.5 -43.5t39.5 -11.5h13q30 0 39.5 11.5t9.5 43.5v426h28v-432q0 -44 -15.5 -60t-57.5 -16h-23q-42 0 -58 16 t-16 60z" />
<glyph unicode="&#xaa;" horiz-adv-x="256" d="M43 539v28h170v-28h-170zM43 719v231q0 51 14 79t54 61q46 36 58.5 57.5t12.5 66.5v146q0 36 -8 47.5t-37 11.5h-16q-29 0 -37 -11.5t-8 -47.5v-176h-27v182q0 45 14.5 61.5t55.5 16.5h22q41 0 55.5 -16.5t14.5 -61.5v-637q0 -47 4 -72h-25q-4 12 -4 37q-13 -47 -65 -47 h-15q-36 0 -49.5 16t-13.5 56zM72 729q0 -34 7 -45.5t34 -11.5h18q51 0 51 73v383q-14 -26 -51 -53q-39 -32 -49 -55.5t-10 -69.5v-221z" />
<glyph unicode="&#xab;" horiz-adv-x="288" d="M16 602l113 436h31l-113 -436l113 -436h-31zM129 602l113 436h30l-112 -436l112 -436h-30z" />
<glyph unicode="&#xac;" d="M53 700v31h234v-137h-29v106h-205z" />
<glyph unicode="&#xad;" horiz-adv-x="219" d="M33 567v33h153v-33h-153z" />
<glyph unicode="&#xae;" horiz-adv-x="550" d="M53 188v1057q0 104 40 151.5t143 47.5h79q104 0 143.5 -47t39.5 -152v-1057q0 -105 -39 -151.5t-144 -46.5h-79q-103 0 -143 47t-40 151zM86 188q0 -95 32 -132.5t120 -37.5h77q88 0 120 37.5t32 132.5v1057q0 95 -32 132.5t-120 37.5h-77q-88 0 -120 -37.5t-32 -132.5 v-1057zM190 141v1151h97q42 0 57.5 -15.5t15.5 -59.5v-439q0 -57 -34 -71q34 -11 34 -70v-377q0 -71 11 -119h-33q-8 23 -8 105v389q0 33 -10.5 46t-40.5 13h-58v-553h-31zM221 721h60q30 0 39.5 11.5t9.5 43.5v436q0 32 -9.5 44t-39.5 12h-60v-547z" />
<glyph unicode="&#xaf;" horiz-adv-x="169" d="M0 1298v29h170v-29h-170z" />
<glyph unicode="&#xb0;" horiz-adv-x="245" d="M33 1329q0 38 26 64t64 26t64 -26t26 -64t-26 -64t-64 -26q-39 0 -64.5 24.5t-25.5 65.5zM61 1329q0 -27 17.5 -44t44.5 -17q26 0 43.5 17.5t17.5 43.5t-17.5 44t-43.5 18q-27 0 -44.5 -17.5t-17.5 -44.5z" />
<glyph unicode="&#xb1;" d="M53 563v33h234v-33h-234zM53 731v31h103v108h30v-108h101v-31h-101v-106h-30v106h-103z" />
<glyph unicode="&#xb2;" horiz-adv-x="260" d="M39 565v107q0 89 15 143.5t69 165.5q41 85 54 139t13 140v94q0 25 -1.5 35.5t-12 19t-33.5 8.5h-22q-32 0 -39.5 -12.5t-7.5 -50.5v-224h-27v234q0 46 15.5 63t56.5 17h28q41 0 56.5 -17t15.5 -63v-104q0 -94 -13.5 -149t-66.5 -161q-42 -90 -55.5 -142.5t-13.5 -135.5 v-80h147v-27h-178z" />
<glyph unicode="&#xb3;" horiz-adv-x="260" d="M43 635v237h27v-227q0 -38 7.5 -50.5t39.5 -12.5h22q32 0 39.5 12.5t7.5 50.5v291q0 38 -7.5 50.5t-39.5 12.5h-63v27h63q32 0 39.5 12t7.5 52v264q0 38 -7.5 50.5t-39.5 12.5h-22q-32 0 -39.5 -12.5t-7.5 -50.5v-230h-27v240q0 46 15.5 63t56.5 17h30q41 0 55.5 -17 t14.5 -63v-274q0 -39 -9 -56.5t-32 -21.5q23 -4 32 -21.5t9 -54.5v-301q0 -46 -14.5 -63t-55.5 -17h-30q-41 0 -56.5 17t-15.5 63z" />
<glyph unicode="&#xb4;" horiz-adv-x="169" d="M41 1253l63 146h43l-84 -146h-22z" />
<glyph unicode="&#xb5;" d="M55 -190v1394h33v-1104q0 -48 10 -65t49 -17h27q76 0 76 109v1077h33v-1100q0 -67 6 -104h-29q-6 15 -6 53q-19 -63 -90 -63h-21q-35 0 -55 10v-190h-33z" />
<glyph unicode="&#xb6;" horiz-adv-x="401" d="M27 670v649q0 68 21.5 91.5t82.5 23.5h209v-1579h-35v1548h-106v-1548h-35v700h-33q-61 0 -82.5 24t-21.5 91z" />
<glyph unicode="&#xb7;" horiz-adv-x="169" d="M66 682v72h38v-72h-38z" />
<glyph unicode="&#xb8;" horiz-adv-x="169" d="M23 -125h30q-3 -33 3 -44t30 -11q20 0 27.5 11.5t7.5 37.5q0 31 -10 43t-39 8v100h14v-75q64 0 64 -72q0 -74 -64 -74q-37 0 -50 18t-13 58z" />
<glyph unicode="&#xb9;" horiz-adv-x="155" d="M63 565v854q6 0 10.5 4.5t4.5 10.5h14v-869h-29z" />
<glyph unicode="&#xba;" horiz-adv-x="256" d="M45 539v28h168v-28h-168zM45 725v641q0 45 14.5 61.5t53.5 16.5h30q41 0 55.5 -16.5t14.5 -61.5v-641q0 -45 -14.5 -61.5t-55.5 -16.5h-30q-39 0 -53.5 16.5t-14.5 61.5zM74 731q0 -36 8 -47.5t37 -11.5h20q29 0 37 11.5t8 47.5v629q0 36 -8 47.5t-37 11.5h-20 q-29 0 -37 -11.5t-8 -47.5v-629z" />
<glyph unicode="&#xbb;" horiz-adv-x="288" d="M16 166l113 436l-113 436h31l113 -436l-113 -436h-31zM129 166l113 436l-113 436h31l112 -436l-112 -436h-31z" />
<glyph unicode="&#xbc;" horiz-adv-x="468" d="M63 565v854q6 0 10.5 4.5t4.5 10.5h14v-869h-29zM98 0l185 1434h24l-184 -1434h-25zM242 215v27l135 626h26v-626h33v-27h-33v-215h-28v215h-133zM268 242h107v141q0 270 2 389q-30 -175 -78 -389z" />
<glyph unicode="&#xbd;" horiz-adv-x="495" d="M63 565v854q6 0 10.5 4.5t4.5 10.5h14v-869h-29zM98 0l185 1434h24l-184 -1434h-25zM274 0v106q0 89 15 144.5t69 165.5q42 85 55 138.5t13 139.5v94q0 25 -1.5 36t-12.5 19.5t-33 8.5h-23q-32 0 -39.5 -12.5t-7.5 -51.5v-223h-26v234q0 46 15 63t56 17h29q41 0 56.5 -17 t15.5 -63v-105q0 -94 -13.5 -148.5t-66.5 -160.5q-43 -90 -56.5 -143t-13.5 -136v-79h148v-27h-179z" />
<glyph unicode="&#xbe;" horiz-adv-x="559" d="M43 635v237h27v-227q0 -38 7.5 -50.5t39.5 -12.5h22q32 0 39.5 12.5t7.5 50.5v291q0 38 -7.5 50.5t-39.5 12.5h-63v27h63q32 0 39.5 12t7.5 52v264q0 38 -7.5 50.5t-39.5 12.5h-22q-32 0 -39.5 -12.5t-7.5 -50.5v-230h-27v240q0 46 15.5 63t56.5 17h30q41 0 55.5 -17 t14.5 -63v-274q0 -39 -9 -56.5t-32 -21.5q23 -4 32 -21.5t9 -54.5v-301q0 -46 -14.5 -63t-55.5 -17h-30q-41 0 -56.5 17t-15.5 63zM188 0l185 1434h24l-184 -1434h-25zM332 215v27l135 626h27v-626h32v-27h-32v-215h-29v215h-133zM358 242h107v141q0 270 2 389 q-30 -175 -78 -389z" />
<glyph unicode="&#xbf;" horiz-adv-x="296" d="M33 -94v289q0 83 13.5 152t32.5 121t37.5 106.5t32 134t13.5 176.5v168h24v-164q0 -120 -19 -217.5t-41 -152t-41 -139t-19 -181.5v-281q0 -53 11 -70.5t56 -17.5h33q45 0 56 17.5t11 70.5v469h31v-481q0 -62 -19.5 -84.5t-76.5 -22.5h-39q-57 0 -76.5 22.5t-19.5 84.5z M154 1124v119h41v-119h-41z" />
<glyph unicode="&#xc0;" horiz-adv-x="344" d="M31 0l116 1434h46l118 -1434h-35l-20 246h-176l-19 -246h-30zM82 274h172l-45 545q-36 446 -41 557q-5 -112 -41 -557zM98 1612h43l64 -146h-23z" />
<glyph unicode="&#xc1;" horiz-adv-x="344" d="M31 0l116 1434h46l118 -1434h-35l-20 246h-176l-19 -246h-30zM82 274h172l-45 545q-36 446 -41 557q-5 -112 -41 -557zM141 1466l64 146h43l-84 -146h-23z" />
<glyph unicode="&#xc2;" horiz-adv-x="344" d="M31 0l116 1434h46l118 -1434h-35l-20 246h-176l-19 -246h-30zM82 274h172l-45 545q-36 446 -41 557q-5 -112 -41 -557zM88 1466l72 146h24l72 -146h-23l-61 101l-61 -101h-23z" />
<glyph unicode="&#xc3;" horiz-adv-x="344" d="M31 0l116 1434h46l118 -1434h-35l-20 246h-176l-19 -246h-30zM74 1493q0 38 13 53t42 15q23 0 53 -19.5t41 -19.5q27 0 27 39h20q0 -39 -12 -53.5t-41 -14.5q-25 0 -54.5 19.5t-39.5 19.5q-27 0 -27 -39h-22zM82 274h172l-45 545q-36 446 -41 557q-5 -112 -41 -557z" />
<glyph unicode="&#xc4;" horiz-adv-x="344" d="M31 0l116 1434h46l118 -1434h-35l-20 246h-176l-19 -246h-30zM82 274h172l-45 545q-36 446 -41 557q-5 -112 -41 -557zM100 1511v52h37v-52h-37zM205 1511v52h37v-52h-37z" />
<glyph unicode="&#xc5;" horiz-adv-x="344" d="M31 0l116 1434h46l118 -1434h-35l-20 246h-176l-19 -246h-30zM82 274h172l-45 545q-36 446 -41 557q-5 -112 -41 -557zM113 1538q0 25 16.5 43t42.5 18t42.5 -18t16.5 -43t-16.5 -43t-42.5 -18t-42.5 18t-16.5 43zM137 1538q0 -16 9 -26.5t26 -10.5t26 10.5t9 26.5 t-9 26.5t-26 10.5t-26 -10.5t-9 -26.5z" />
<glyph unicode="&#xc6;" horiz-adv-x="428" d="M18 0l175 1434h204v-31h-157v-633h139v-31h-139v-708h157v-31h-192v246h-127l-29 -246h-31zM82 274h123v1049q-27 -261 -58 -504z" />
<glyph unicode="&#xc7;" horiz-adv-x="362" d="M57 104v1225q0 67 21.5 91t83.5 24h41q61 0 82.5 -23.5t21.5 -91.5v-452h-33v440q0 60 -11.5 78t-61.5 18h-35q-50 0 -62 -18.5t-12 -77.5v-1200q0 -60 12 -78.5t62 -18.5h35q50 0 61.5 18.5t11.5 78.5v501h33v-514q0 -67 -21 -90.5t-83 -23.5h-27v-45q64 0 64 -72 q0 -74 -64 -74q-37 0 -50 18t-13 58h30q-3 -33 3 -44t30 -11q20 0 27.5 11.5t7.5 37.5q0 31 -10 43t-39 8v70q-62 0 -83.5 23.5t-21.5 90.5z" />
<glyph unicode="&#xc8;" horiz-adv-x="284" d="M61 0v1434h193v-31h-158v-633h140v-31h-140v-708h158v-31h-193zM84 1612h43l63 -146h-22z" />
<glyph unicode="&#xc9;" horiz-adv-x="284" d="M61 0v1434h193v-31h-158v-633h140v-31h-140v-708h158v-31h-193zM127 1466l63 146h43l-83 -146h-23z" />
<glyph unicode="&#xca;" horiz-adv-x="284" d="M61 0v1434h193v-31h-158v-633h140v-31h-140v-708h158v-31h-193zM72 1466l71 146h25l72 -146h-23l-61 101l-62 -101h-22z" />
<glyph unicode="&#xcb;" horiz-adv-x="284" d="M61 0v1434h193v-31h-158v-633h140v-31h-140v-708h158v-31h-193zM84 1511v52h37v-52h-37zM188 1511v52h37v-52h-37z" />
<glyph unicode="&#xcc;" horiz-adv-x="157" d="M6 1612h43l64 -146h-23zM61 0v1434h35v-1434h-35z" />
<glyph unicode="&#xcd;" horiz-adv-x="157" d="M49 1466l64 146h43l-84 -146h-23zM61 0v1434h35v-1434h-35z" />
<glyph unicode="&#xce;" horiz-adv-x="157" d="M-4 1466l72 146h24l72 -146h-23l-61 101l-62 -101h-22zM61 0v1434h35v-1434h-35z" />
<glyph unicode="&#xcf;" horiz-adv-x="157" d="M8 1511v52h37v-52h-37zM61 0v1434h35v-1434h-35zM113 1511v52h37v-52h-37z" />
<glyph unicode="&#xd0;" horiz-adv-x="370" d="M25 741v29h36v664h148q61 0 82.5 -23.5t21.5 -91.5v-1204q0 -68 -21.5 -91.5t-82.5 -23.5h-148v741h-36zM96 31h109q50 0 62 18.5t12 77.5v1180q0 59 -12 77.5t-62 18.5h-109v-633h99v-29h-99v-710z" />
<glyph unicode="&#xd1;" horiz-adv-x="380" d="M61 0v1434h48l157 -1096q21 -159 27 -225q-4 196 -4 223v1098h30v-1434h-38l-166 1153q-23 172 -27 221q4 -132 4 -219v-1155h-31zM92 1493q0 38 13 53t42 15q23 0 54 -19.5t41 -19.5q26 0 26 39h21q0 -39 -12 -53.5t-41 -14.5q-25 0 -55 19.5t-40 19.5q-26 0 -26 -39 h-23z" />
<glyph unicode="&#xd2;" horiz-adv-x="366" d="M57 104v1225q0 67 21.5 91t83.5 24h43q61 0 82.5 -23.5t21.5 -91.5v-1225q0 -67 -21 -90.5t-83 -23.5h-43q-62 0 -83.5 23.5t-21.5 90.5zM92 117q0 -60 12 -78.5t62 -18.5h35q50 0 61.5 18.5t11.5 78.5v1200q0 60 -11.5 78t-61.5 18h-35q-50 0 -62 -18.5t-12 -77.5v-1200 zM111 1612h43l63 -146h-22z" />
<glyph unicode="&#xd3;" horiz-adv-x="366" d="M57 104v1225q0 67 21.5 91t83.5 24h43q61 0 82.5 -23.5t21.5 -91.5v-1225q0 -67 -21 -90.5t-83 -23.5h-43q-62 0 -83.5 23.5t-21.5 90.5zM92 117q0 -60 12 -78.5t62 -18.5h35q50 0 61.5 18.5t11.5 78.5v1200q0 60 -11.5 78t-61.5 18h-35q-50 0 -62 -18.5t-12 -77.5v-1200 zM154 1466l63 146h43l-84 -146h-22z" />
<glyph unicode="&#xd4;" horiz-adv-x="366" d="M57 104v1225q0 67 21.5 91t83.5 24h43q61 0 82.5 -23.5t21.5 -91.5v-1225q0 -67 -21 -90.5t-83 -23.5h-43q-62 0 -83.5 23.5t-21.5 90.5zM92 117q0 -60 12 -78.5t62 -18.5h35q50 0 61.5 18.5t11.5 78.5v1200q0 60 -11.5 78t-61.5 18h-35q-50 0 -62 -18.5t-12 -77.5v-1200 zM98 1466l72 146h25l71 -146h-22l-62 101l-61 -101h-23z" />
<glyph unicode="&#xd5;" horiz-adv-x="366" d="M57 104v1225q0 67 21.5 91t83.5 24h43q61 0 82.5 -23.5t21.5 -91.5v-1225q0 -67 -21 -90.5t-83 -23.5h-43q-62 0 -83.5 23.5t-21.5 90.5zM84 1493q0 38 13 53t42 15q23 0 53 -19.5t41 -19.5q27 0 27 39h21q0 -39 -12.5 -53.5t-41.5 -14.5q-25 0 -54.5 19.5t-39.5 19.5 q-27 0 -27 -39h-22zM92 117q0 -60 12 -78.5t62 -18.5h35q50 0 61.5 18.5t11.5 78.5v1200q0 60 -11.5 78t-61.5 18h-35q-50 0 -62 -18.5t-12 -77.5v-1200z" />
<glyph unicode="&#xd6;" horiz-adv-x="366" d="M57 104v1225q0 67 21.5 91t83.5 24h43q61 0 82.5 -23.5t21.5 -91.5v-1225q0 -67 -21 -90.5t-83 -23.5h-43q-62 0 -83.5 23.5t-21.5 90.5zM92 117q0 -60 12 -78.5t62 -18.5h35q50 0 61.5 18.5t11.5 78.5v1200q0 60 -11.5 78t-61.5 18h-35q-50 0 -62 -18.5t-12 -77.5v-1200 zM113 1511v52h37v-52h-37zM217 1511v52h37v-52h-37z" />
<glyph unicode="&#xd7;" d="M61 625l89 92l-89 94l21 23l88 -95l88 95l21 -23l-89 -94l89 -92l-21 -21l-88 92l-88 -92z" />
<glyph unicode="&#xd8;" horiz-adv-x="366" d="M57 -61l13 86q-13 29 -13 79v1225q0 67 21.5 91t83.5 24h43q44 0 65 -12l11 63h28l-14 -88q14 -22 14 -78v-1225q0 -67 -21 -90.5t-83 -23.5h-43q-41 0 -68 10l-8 -61h-29zM92 178l172 1213q-11 22 -63 22h-35q-50 0 -62 -18.5t-12 -77.5v-1139zM100 43q14 -23 66 -23h35 q50 0 61.5 18.5t11.5 78.5v1138z" />
<glyph unicode="&#xd9;" horiz-adv-x="368" d="M59 104v1330h35v-1317q0 -60 12 -78.5t62 -18.5h35q50 0 61.5 18.5t11.5 78.5v1317h33v-1330q0 -67 -21 -90.5t-83 -23.5h-41q-62 0 -83.5 23.5t-21.5 90.5zM111 1612h43l63 -146h-22z" />
<glyph unicode="&#xda;" horiz-adv-x="368" d="M59 104v1330h35v-1317q0 -60 12 -78.5t62 -18.5h35q50 0 61.5 18.5t11.5 78.5v1317h33v-1330q0 -67 -21 -90.5t-83 -23.5h-41q-62 0 -83.5 23.5t-21.5 90.5zM154 1466l63 146h43l-84 -146h-22z" />
<glyph unicode="&#xdb;" horiz-adv-x="368" d="M59 104v1330h35v-1317q0 -60 12 -78.5t62 -18.5h35q50 0 61.5 18.5t11.5 78.5v1317h33v-1330q0 -67 -21 -90.5t-83 -23.5h-41q-62 0 -83.5 23.5t-21.5 90.5zM100 1466l72 146h25l71 -146h-22l-62 101l-61 -101h-23z" />
<glyph unicode="&#xdc;" horiz-adv-x="368" d="M59 104v1330h35v-1317q0 -60 12 -78.5t62 -18.5h35q50 0 61.5 18.5t11.5 78.5v1317h33v-1330q0 -67 -21 -90.5t-83 -23.5h-41q-62 0 -83.5 23.5t-21.5 90.5zM113 1511v52h37v-52h-37zM217 1511v52h37v-52h-37z" />
<glyph unicode="&#xdd;" horiz-adv-x="309" d="M16 1434h35l62 -437q34 -246 45 -391q9 112 47 391l59 437h31l-121 -887v-547h-35v547zM129 1466l64 146h43l-84 -146h-23z" />
<glyph unicode="&#xde;" horiz-adv-x="329" d="M61 0v1434h35v-95h103q61 0 82.5 -24t21.5 -90v-576q0 -66 -21.5 -90t-82.5 -24h-103v-535h-35zM96 565h99q50 0 61.5 18.5t11.5 78.5v550q0 59 -12 78t-61 19h-99v-744z" />
<glyph unicode="&#xdf;" horiz-adv-x="337" d="M57 0v1341q0 59 18.5 81t71.5 22h52q50 0 68 -21t18 -77v-314q0 -46 -11.5 -68t-40.5 -28q29 -6 40.5 -27.5t11.5 -66.5v-740q0 -59 -18.5 -80.5t-71.5 -21.5h-48v29h41q39 0 51.5 13t12.5 64v734q0 48 -11.5 65t-50.5 17h-43v28h43q39 0 50.5 17.5t11.5 64.5v301 q0 47 -11.5 64.5t-50.5 17.5h-36q-39 0 -51.5 -13t-12.5 -65v-1337h-33z" />
<glyph unicode="&#xe0;" horiz-adv-x="325" d="M47 88v371q0 79 18 118t76 87q66 59 81.5 87t15.5 91v256q0 53 -11 70.5t-53 17.5h-29q-42 0 -52.5 -17.5t-10.5 -70.5v-301h-31v315q0 59 18.5 80.5t71.5 21.5h37q55 0 73.5 -21.5t18.5 -80.5v-1008q0 -67 6 -104h-28q-6 15 -6 53q-19 -63 -90 -63h-17q-51 0 -69.5 21 t-18.5 77zM80 100q0 -48 10 -65t49 -17h23q76 0 76 109v602q-14 -31 -74 -82q-56 -48 -70 -81t-14 -105v-361zM92 1399h43l64 -146h-23z" />
<glyph unicode="&#xe1;" horiz-adv-x="325" d="M47 88v371q0 79 18 118t76 87q66 59 81.5 87t15.5 91v256q0 53 -11 70.5t-53 17.5h-29q-42 0 -52.5 -17.5t-10.5 -70.5v-301h-31v315q0 59 18.5 80.5t71.5 21.5h37q55 0 73.5 -21.5t18.5 -80.5v-1008q0 -67 6 -104h-28q-6 15 -6 53q-19 -63 -90 -63h-17q-51 0 -69.5 21 t-18.5 77zM80 100q0 -48 10 -65t49 -17h23q76 0 76 109v602q-14 -31 -74 -82q-56 -48 -70 -81t-14 -105v-361zM135 1253l64 146h43l-84 -146h-23z" />
<glyph unicode="&#xe2;" horiz-adv-x="325" d="M47 88v371q0 79 18 118t76 87q66 59 81.5 87t15.5 91v256q0 53 -11 70.5t-53 17.5h-29q-42 0 -52.5 -17.5t-10.5 -70.5v-301h-31v315q0 59 18.5 80.5t71.5 21.5h37q55 0 73.5 -21.5t18.5 -80.5v-1008q0 -67 6 -104h-28q-6 15 -6 53q-19 -63 -90 -63h-17q-51 0 -69.5 21 t-18.5 77zM80 100q0 -48 10 -65t49 -17h23q76 0 76 109v602q-14 -31 -74 -82q-56 -48 -70 -81t-14 -105v-361zM80 1253l72 146h24l72 -146h-23l-61 101l-62 -101h-22z" />
<glyph unicode="&#xe3;" horiz-adv-x="325" d="M47 88v371q0 79 18 118t76 87q66 59 81.5 87t15.5 91v256q0 53 -11 70.5t-53 17.5h-29q-42 0 -52.5 -17.5t-10.5 -70.5v-301h-31v315q0 59 18.5 80.5t71.5 21.5h37q55 0 73.5 -21.5t18.5 -80.5v-1008q0 -67 6 -104h-28q-6 15 -6 53q-19 -63 -90 -63h-17q-51 0 -69.5 21 t-18.5 77zM66 1280q0 38 13 53t42 15q23 0 53 -19.5t41 -19.5q27 0 27 39h20q0 -39 -12 -53.5t-41 -14.5q-25 0 -54.5 19.5t-39.5 19.5q-27 0 -27 -39h-22zM80 100q0 -48 10 -65t49 -17h23q76 0 76 109v602q-14 -31 -74 -82q-56 -48 -70 -81t-14 -105v-361z" />
<glyph unicode="&#xe4;" horiz-adv-x="325" d="M47 88v371q0 79 18 118t76 87q66 59 81.5 87t15.5 91v256q0 53 -11 70.5t-53 17.5h-29q-42 0 -52.5 -17.5t-10.5 -70.5v-301h-31v315q0 59 18.5 80.5t71.5 21.5h37q55 0 73.5 -21.5t18.5 -80.5v-1008q0 -67 6 -104h-28q-6 15 -6 53q-19 -63 -90 -63h-17q-51 0 -69.5 21 t-18.5 77zM80 100q0 -48 10 -65t49 -17h23q76 0 76 109v602q-14 -31 -74 -82q-56 -48 -70 -81t-14 -105v-361zM94 1298v52h37v-52h-37zM199 1298v52h37v-52h-37z" />
<glyph unicode="&#xe5;" horiz-adv-x="325" d="M47 88v371q0 79 18 118t76 87q66 59 81.5 87t15.5 91v256q0 53 -11 70.5t-53 17.5h-29q-42 0 -52.5 -17.5t-10.5 -70.5v-301h-31v315q0 59 18.5 80.5t71.5 21.5h37q55 0 73.5 -21.5t18.5 -80.5v-1008q0 -67 6 -104h-28q-6 15 -6 53q-19 -63 -90 -63h-17q-51 0 -69.5 21 t-18.5 77zM80 100q0 -48 10 -65t49 -17h23q76 0 76 109v602q-14 -31 -74 -82q-56 -48 -70 -81t-14 -105v-361zM104 1325q0 25 17 43t43 18t42.5 -18t16.5 -43t-16.5 -43t-42.5 -18t-43 18t-17 43zM129 1325q0 -16 9 -26.5t26 -10.5t26 10.5t9 26.5t-9 26.5t-26 10.5 t-26 -10.5t-9 -26.5z" />
<glyph unicode="&#xe6;" horiz-adv-x="514" d="M47 88v371q0 79 18 118t76 87q66 59 81.5 87t15.5 91v256q0 53 -11 70.5t-53 17.5h-29q-42 0 -52.5 -17.5t-10.5 -70.5v-301h-31v315q0 59 19 80.5t73 21.5h23q42 0 62 -12t26 -41q6 29 26 41t62 12h27q55 0 74.5 -21.5t19.5 -80.5v-514h-193v-492q0 -53 11 -70.5 t53 -17.5h35q42 0 52.5 17.5t10.5 70.5v300h31v-314q0 -59 -18.5 -80.5t-73.5 -21.5h-41q-45 0 -65.5 13t-24.5 46q-19 -59 -88 -59h-17q-51 0 -69.5 21t-18.5 77zM80 100q0 -48 10 -65t49 -17h23q76 0 76 109v602q-14 -31 -74 -82q-57 -49 -70.5 -81.5t-13.5 -104.5v-361z M270 627h162v471q0 53 -10.5 70.5t-52.5 17.5h-35q-42 0 -53 -17.5t-11 -70.5v-471z" />
<glyph unicode="&#xe7;" horiz-adv-x="329" d="M53 92v1020q0 59 18.5 80.5t73.5 21.5h41q55 0 74 -21.5t19 -80.5v-377h-31v363q0 53 -11 70.5t-53 17.5h-34q-42 0 -53 -17.5t-11 -70.5v-992q0 -53 11 -70.5t53 -17.5h34q42 0 53 17.5t11 70.5v383h31v-397q0 -59 -19 -80.5t-74 -21.5h-24v-45q63 0 63 -72 q0 -74 -63 -74q-38 0 -51 18t-13 58h31q-3 -33 3 -44t30 -11q20 0 27.5 11.5t7.5 37.5q0 31 -10.5 43t-39.5 8v70h-2q-55 0 -73.5 21.5t-18.5 80.5z" />
<glyph unicode="&#xe8;" horiz-adv-x="329" d="M53 92v1020q0 59 18.5 80.5t73.5 21.5h41q55 0 74 -21.5t19 -80.5v-514h-193v-492q0 -53 11 -70.5t53 -17.5h34q42 0 53 17.5t11 70.5v300h31v-314q0 -59 -19 -80.5t-74 -21.5h-41q-55 0 -73.5 21.5t-18.5 80.5zM86 627h162v471q0 53 -11 70.5t-53 17.5h-34 q-42 0 -53 -17.5t-11 -70.5v-471zM96 1399h43l64 -146h-23z" />
<glyph unicode="&#xe9;" horiz-adv-x="329" d="M53 92v1020q0 59 18.5 80.5t73.5 21.5h41q55 0 74 -21.5t19 -80.5v-514h-193v-492q0 -53 11 -70.5t53 -17.5h34q42 0 53 17.5t11 70.5v300h31v-314q0 -59 -19 -80.5t-74 -21.5h-41q-55 0 -73.5 21.5t-18.5 80.5zM86 627h162v471q0 53 -11 70.5t-53 17.5h-34 q-42 0 -53 -17.5t-11 -70.5v-471zM139 1253l64 146h43l-84 -146h-23z" />
<glyph unicode="&#xea;" horiz-adv-x="329" d="M53 92v1020q0 59 18.5 80.5t73.5 21.5h41q55 0 74 -21.5t19 -80.5v-514h-193v-492q0 -53 11 -70.5t53 -17.5h34q42 0 53 17.5t11 70.5v300h31v-314q0 -59 -19 -80.5t-74 -21.5h-41q-55 0 -73.5 21.5t-18.5 80.5zM84 1253l72 146h24l72 -146h-23l-61 101l-62 -101h-22z M86 627h162v471q0 53 -11 70.5t-53 17.5h-34q-42 0 -53 -17.5t-11 -70.5v-471z" />
<glyph unicode="&#xeb;" horiz-adv-x="329" d="M53 92v1020q0 59 18.5 80.5t73.5 21.5h41q55 0 74 -21.5t19 -80.5v-514h-193v-492q0 -53 11 -70.5t53 -17.5h34q42 0 53 17.5t11 70.5v300h31v-314q0 -59 -19 -80.5t-74 -21.5h-41q-55 0 -73.5 21.5t-18.5 80.5zM86 627h162v471q0 53 -11 70.5t-53 17.5h-34 q-42 0 -53 -17.5t-11 -70.5v-471zM98 1298v52h37v-52h-37zM203 1298v52h37v-52h-37z" />
<glyph unicode="&#xec;" horiz-adv-x="147" d="M2 1399h43l64 -146h-23zM57 0v1204h33v-1204h-33z" />
<glyph unicode="&#xed;" horiz-adv-x="147" d="M45 1253l64 146h43l-84 -146h-23zM57 0v1204h33v-1204h-33z" />
<glyph unicode="&#xee;" horiz-adv-x="147" d="M-10 1253l71 146h25l72 -146h-23l-61 101l-62 -101h-22zM57 0v1204h33v-1204h-33z" />
<glyph unicode="&#xef;" horiz-adv-x="147" d="M4 1298v52h37v-52h-37zM57 0v1204h33v-1204h-33zM109 1298v52h36v-52h-36z" />
<glyph unicode="&#xf0;" horiz-adv-x="348" d="M53 92v1024q0 56 18.5 77t69.5 21h21q64 0 86 -53v158q0 36 -6 57l-76 -88l-16 15l81 90q-15 12 -47 12h-34v29h34q44 0 66 -19l16 19h27l-29 -33q17 -31 17 -76v-1233q0 -59 -19 -80.5t-74 -21.5h-43q-55 0 -73.5 21.5t-18.5 80.5zM86 106q0 -53 11 -70.5t53 -17.5h34 q42 0 53 17.5t11 70.5v971q0 109 -76 109h-27q-39 0 -49 -17t-10 -65v-998z" />
<glyph unicode="&#xf1;" d="M57 0v1204h29v-55q20 65 90 65h21q51 0 69.5 -21t18.5 -77v-1116h-33v1104q0 48 -10 65t-49 17h-27q-76 0 -76 -109v-1077h-33zM74 1280q0 38 13 53t42 15q23 0 53 -19.5t41 -19.5q27 0 27 39h20q0 -39 -12 -53.5t-41 -14.5q-25 0 -54.5 19.5t-39.5 19.5q-27 0 -27 -39 h-22z" />
<glyph unicode="&#xf2;" horiz-adv-x="333" d="M53 92v1020q0 59 18.5 80.5t73.5 21.5h43q55 0 74 -21.5t19 -80.5v-1020q0 -59 -19 -80.5t-74 -21.5h-43q-55 0 -73.5 21.5t-18.5 80.5zM86 106q0 -53 11 -70.5t53 -17.5h34q42 0 53 17.5t11 70.5v992q0 53 -11 70.5t-53 17.5h-34q-42 0 -53 -17.5t-11 -70.5v-992z M94 1399h43l64 -146h-23z" />
<glyph unicode="&#xf3;" horiz-adv-x="333" d="M53 92v1020q0 59 18.5 80.5t73.5 21.5h43q55 0 74 -21.5t19 -80.5v-1020q0 -59 -19 -80.5t-74 -21.5h-43q-55 0 -73.5 21.5t-18.5 80.5zM86 106q0 -53 11 -70.5t53 -17.5h34q42 0 53 17.5t11 70.5v992q0 53 -11 70.5t-53 17.5h-34q-42 0 -53 -17.5t-11 -70.5v-992z M137 1253l64 146h43l-84 -146h-23z" />
<glyph unicode="&#xf4;" horiz-adv-x="333" d="M53 92v1020q0 59 18.5 80.5t73.5 21.5h43q55 0 74 -21.5t19 -80.5v-1020q0 -59 -19 -80.5t-74 -21.5h-43q-55 0 -73.5 21.5t-18.5 80.5zM82 1253l72 146h24l72 -146h-23l-61 101l-62 -101h-22zM86 106q0 -53 11 -70.5t53 -17.5h34q42 0 53 17.5t11 70.5v992 q0 53 -11 70.5t-53 17.5h-34q-42 0 -53 -17.5t-11 -70.5v-992z" />
<glyph unicode="&#xf5;" horiz-adv-x="333" d="M53 92v1020q0 59 18.5 80.5t73.5 21.5h43q55 0 74 -21.5t19 -80.5v-1020q0 -59 -19 -80.5t-74 -21.5h-43q-55 0 -73.5 21.5t-18.5 80.5zM68 1280q0 38 13 53t42 15q23 0 53 -19.5t41 -19.5q27 0 27 39h20q0 -39 -12 -53.5t-41 -14.5q-25 0 -54.5 19.5t-39.5 19.5 q-27 0 -27 -39h-22zM86 106q0 -53 11 -70.5t53 -17.5h34q42 0 53 17.5t11 70.5v992q0 53 -11 70.5t-53 17.5h-34q-42 0 -53 -17.5t-11 -70.5v-992z" />
<glyph unicode="&#xf6;" horiz-adv-x="333" d="M53 92v1020q0 59 18.5 80.5t73.5 21.5h43q55 0 74 -21.5t19 -80.5v-1020q0 -59 -19 -80.5t-74 -21.5h-43q-55 0 -73.5 21.5t-18.5 80.5zM86 106q0 -53 11 -70.5t53 -17.5h34q42 0 53 17.5t11 70.5v992q0 53 -11 70.5t-53 17.5h-34q-42 0 -53 -17.5t-11 -70.5v-992z M96 1298v52h37v-52h-37zM201 1298v52h37v-52h-37z" />
<glyph unicode="&#xf7;" d="M53 700v31h234v-31h-234zM150 594v43h38v-43h-38zM150 799v41h38v-41h-38z" />
<glyph unicode="&#xf8;" horiz-adv-x="333" d="M53 -61l13 79q-13 21 -13 74v1020q0 59 18.5 80.5t73.5 21.5h43q35 0 54 -8l10 70h29l-15 -90q15 -24 15 -74v-1020q0 -59 -19 -80.5t-74 -21.5h-43q-36 0 -55 8l-8 -59h-29zM86 156l150 1013q-14 17 -52 17h-34q-42 0 -53 -17.5t-11 -70.5v-942zM96 35q14 -17 54 -17h34 q42 0 53 17.5t11 70.5v953z" />
<glyph unicode="&#xf9;" d="M55 88v1116h33v-1104q0 -48 10 -65t49 -17h27q76 0 76 109v1077h33v-1100q0 -67 6 -104h-29q-6 15 -6 53q-19 -63 -90 -63h-21q-51 0 -69.5 21t-18.5 77zM96 1399h43l64 -146h-23z" />
<glyph unicode="&#xfa;" d="M55 88v1116h33v-1104q0 -48 10 -65t49 -17h27q76 0 76 109v1077h33v-1100q0 -67 6 -104h-29q-6 15 -6 53q-19 -63 -90 -63h-21q-51 0 -69.5 21t-18.5 77zM139 1253l64 146h43l-84 -146h-23z" />
<glyph unicode="&#xfb;" d="M55 88v1116h33v-1104q0 -48 10 -65t49 -17h27q76 0 76 109v1077h33v-1100q0 -67 6 -104h-29q-6 15 -6 53q-19 -63 -90 -63h-21q-51 0 -69.5 21t-18.5 77zM86 1253l72 146h24l72 -146h-23l-61 101l-61 -101h-23z" />
<glyph unicode="&#xfc;" d="M55 88v1116h33v-1104q0 -48 10 -65t49 -17h27q76 0 76 109v1077h33v-1100q0 -67 6 -104h-29q-6 15 -6 53q-19 -63 -90 -63h-21q-51 0 -69.5 21t-18.5 77zM98 1298v52h37v-52h-37zM203 1298v52h37v-52h-37z" />
<glyph unicode="&#xfd;" horiz-adv-x="294" d="M14 1204h33l64 -661q34 -350 39 -488q5 154 38 488l64 661h29l-123 -1296q-8 -82 -80 -82h-41v29h39q25 0 35.5 13t13.5 42l4 53zM119 1253l63 146h43l-84 -146h-22z" />
<glyph unicode="&#xfe;" horiz-adv-x="337" d="M57 -190v1624h33v-273q19 53 86 53h21q51 0 69.5 -21t18.5 -77v-1028q0 -56 -18.5 -77t-69.5 -21h-21q-67 0 -86 53v-233h-33zM90 127q0 -109 76 -109h27q39 0 49 17t10 65v1004q0 48 -10 65t-49 17h-27q-76 0 -76 -109v-950z" />
<glyph unicode="&#xff;" horiz-adv-x="294" d="M14 1204h33l64 -661q34 -350 39 -488q5 154 38 488l64 661h29l-123 -1296q-8 -82 -80 -82h-41v29h39q25 0 35.5 13t13.5 42l4 53zM78 1298v52h37v-52h-37zM182 1298v52h37v-52h-37z" />
<glyph unicode="&#x152;" horiz-adv-x="477" d="M57 115v1204q0 67 21.5 91t83.5 24h284v-31h-157v-633h139v-31h-139v-708h157v-31h-284q-62 0 -83.5 24t-21.5 91zM92 127q0 -59 12 -77.5t62 -18.5h88v1372h-88q-50 0 -62 -18.5t-12 -77.5v-1180z" />
<glyph unicode="&#x153;" horiz-adv-x="524" d="M53 92v1020q0 59 18.5 80.5t73.5 21.5h31q42 0 62 -12.5t26 -44.5q6 32 26 44.5t62 12.5h29q54 0 73 -21.5t19 -80.5v-514h-192v-492q0 -53 10.5 -70.5t52.5 -17.5h35q42 0 52.5 17.5t10.5 70.5v300h31v-314q0 -59 -19 -80.5t-73 -21.5h-29q-42 0 -62 12.5t-26 44.5 q-6 -32 -26 -44.5t-62 -12.5h-31q-55 0 -73.5 21.5t-18.5 80.5zM86 106q0 -53 11 -70.5t53 -17.5h34q42 0 53 17.5t11 70.5v992q0 53 -11 70.5t-53 17.5h-34q-42 0 -53 -17.5t-11 -70.5v-992zM281 627h161v471q0 53 -10.5 70.5t-52.5 17.5h-35q-42 0 -52.5 -17.5 t-10.5 -70.5v-471z" />
<glyph unicode="&#x178;" horiz-adv-x="309" d="M16 1434h35l62 -437q34 -246 45 -391q9 112 47 391l59 437h31l-121 -887v-547h-35v547zM88 1511v52h37v-52h-37zM193 1511v52h36v-52h-36z" />
<glyph unicode="&#x2c6;" horiz-adv-x="169" d="M0 1253l72 146h24l72 -146h-23l-61 101l-61 -101h-23z" />
<glyph unicode="&#x2dc;" horiz-adv-x="169" d="M-14 1280q0 38 13 53t42 15q23 0 53 -19.5t41 -19.5q27 0 27 39h20q0 -39 -12 -53.5t-41 -14.5q-25 0 -54.5 19.5t-39.5 19.5q-27 0 -27 -39h-22z" />
<glyph unicode="&#x2000;" horiz-adv-x="806" />
<glyph unicode="&#x2001;" horiz-adv-x="1612" />
<glyph unicode="&#x2002;" horiz-adv-x="806" />
<glyph unicode="&#x2003;" horiz-adv-x="1612" />
<glyph unicode="&#x2004;" horiz-adv-x="537" />
<glyph unicode="&#x2005;" horiz-adv-x="403" />
<glyph unicode="&#x2006;" horiz-adv-x="268" />
<glyph unicode="&#x2007;" horiz-adv-x="268" />
<glyph unicode="&#x2008;" horiz-adv-x="201" />
<glyph unicode="&#x2009;" horiz-adv-x="322" />
<glyph unicode="&#x200a;" horiz-adv-x="89" />
<glyph unicode="&#x2010;" horiz-adv-x="219" d="M33 567v33h153v-33h-153z" />
<glyph unicode="&#x2011;" horiz-adv-x="219" d="M33 567v33h153v-33h-153z" />
<glyph unicode="&#x2012;" horiz-adv-x="219" d="M33 567v33h153v-33h-153z" />
<glyph unicode="&#x2013;" horiz-adv-x="1024" d="M0 567v33h1024v-33h-1024z" />
<glyph unicode="&#x2014;" horiz-adv-x="2048" d="M0 567v33h2048v-33h-2048z" />
<glyph unicode="&#x2018;" horiz-adv-x="169" d="M63 1255v72l33 107l8 -2l-20 -105h18v-72h-39z" />
<glyph unicode="&#x2019;" horiz-adv-x="169" d="M63 1257l21 105h-18v72h38v-72l-32 -107z" />
<glyph unicode="&#x201a;" horiz-adv-x="169" d="M63 -104l21 104h-18v72h38v-72l-32 -106z" />
<glyph unicode="&#x201c;" horiz-adv-x="241" d="M47 1255v72l33 107l8 -2l-20 -105h18v-72h-39zM152 1255v72l32 107l9 -2l-21 -105h18v-72h-38z" />
<glyph unicode="&#x201d;" horiz-adv-x="241" d="M47 1257l21 105h-19v72h39v-72l-33 -107zM152 1257l20 105h-18v72h39v-72l-33 -107z" />
<glyph unicode="&#x201e;" horiz-adv-x="241" d="M47 -104l21 104h-19v72h39v-72l-33 -106zM152 -104l20 104h-18v72h39v-72l-33 -106z" />
<glyph unicode="&#x2022;" horiz-adv-x="294" d="M53 717q0 39 27.5 66.5t66.5 27.5q38 0 66.5 -28t28.5 -66t-28.5 -66t-66.5 -28q-39 0 -66.5 27.5t-27.5 66.5z" />
<glyph unicode="&#x2026;" horiz-adv-x="346" d="M49 0v72h39v-72h-39zM154 0v72h39v-72h-39zM258 0v72h39v-72h-39z" />
<glyph unicode="&#x202f;" horiz-adv-x="322" />
<glyph unicode="&#x2039;" horiz-adv-x="176" d="M16 602l113 436h31l-113 -436l113 -436h-31z" />
<glyph unicode="&#x203a;" horiz-adv-x="176" d="M16 166l113 436l-113 436h31l113 -436l-113 -436h-31z" />
<glyph unicode="&#x205f;" horiz-adv-x="403" />
<glyph unicode="&#x20ac;" d="M23 682v29h40v88h-40v28h40v510q0 62 20.5 84.5t78.5 22.5h37q57 0 76.5 -22.5t19.5 -84.5v-424h-31v412q0 53 -11 70.5t-56 17.5h-33q-45 0 -56.5 -17.5t-11.5 -70.5v-498h199v-28h-199v-88h199v-29h-199v-573q0 -53 11.5 -71t56.5 -18h33q45 0 56 17.5t11 71.5v487h31 v-500q0 -62 -19.5 -84t-76.5 -22h-37q-58 0 -78.5 22t-20.5 84v586h-40z" />
<glyph unicode="&#x2122;" horiz-adv-x="468" d="M12 1405v29h140v-29h-54v-819h-32v819h-54zM199 586v848h45l63 -615q6 -70 10 -155q5 107 9 155l61 615h47v-848h-33v616q0 46 5 168q-1 -22 -7.5 -87t-7.5 -81l-61 -616h-27l-67 616q-6 58 -15 160q4 -94 4 -160v-616h-26z" />
<glyph unicode="&#x25fc;" horiz-adv-x="1205" d="M0 0v1205h1205v-1205h-1205z" />
</font>
</defs>
</svg>
