<svg xmlns="http://www.w3.org/2000/svg" width="200" height="200" viewBox="0 0 200 200"><path fill="#606060" d="M99.97-.03C44.727-.03-.06 44.752-.06 100c0 55.246 44.785 100.03 100.03 100.03C155.213 200.03 200 155.247 200 100 200 44.752 155.213-.03 99.97-.03zm-.31 192.152c-50.88 0-92.122-41.242-92.122-92.123 0-50.88 41.243-92.123 92.12-92.123 50.878 0 92.123 41.244 92.123 92.122 0 50.88-41.244 92.122-92.12 92.122z"/><path fill="#606060" d="M85.542 156.27h22.5V99.93h15.696l1.674-18.864h-17.37V70.32c0-4.448.894-6.206 5.194-6.206h12.176V44.537h-15.58c-16.74 0-24.29 7.374-24.29 21.487v15.04H73.84v19.1H85.54v56.107z"/></svg>