<svg xmlns="http://www.w3.org/2000/svg" width="200" height="200" viewBox="0 0 200 200"><path fill="#606060" d="M101.488 75.207c6.955 0 13.24 2.867 17.762 7.49h31.014V69.954h.004c0-10.712-8.63-19.394-19.27-19.394H78.343v24.452h-3.948v-24.45H72.11c-.15 0-.295.004-.445.008v24.442h-3.948v-23.94c-.96.227-1.89.52-2.782.885v23.055h-3.953V54.13c-4.92 3.51-8.14 9.286-8.14 15.825v12.74h30.89c4.523-4.62 10.806-7.488 17.756-7.488zM124.86 61.78c0-1.718 1.38-3.11 3.093-3.11h10.415c1.705 0 3.092 1.392 3.092 3.11V72.5c0 1.718-1.387 3.108-3.092 3.108h-10.415c-1.712 0-3.092-1.39-3.092-3.108V61.78z"/><path fill="#606060" d="M114.137 85.767c-1.41-1.24-3-2.28-4.724-3.07-2.415-1.108-5.1-1.728-7.925-1.728-2.82 0-5.503.62-7.918 1.726-1.725.79-3.318 1.832-4.723 3.07-4.018 3.55-6.56 8.75-6.56 14.536 0 10.662 8.613 19.333 19.2 19.333 10.595 0 19.208-8.67 19.208-19.333 0-5.787-2.543-10.987-6.558-14.535zm-12.582 28.824c-7.84 0-14.193-6.396-14.193-14.29 0-7.89 6.354-14.288 14.193-14.288 7.84 0 14.193 6.397 14.193 14.29 0 7.89-6.353 14.29-14.193 14.29z"/><path fill="#606060" d="M72.11 149.148H131c10.64 0 19.27-8.688 19.27-19.398V85.767h-28.46c2.898 4.102 4.612 9.117 4.612 14.535 0 13.86-11.16 25.097-24.932 25.097-13.765 0-24.926-11.237-24.926-25.098 0-5.417 1.71-10.433 4.615-14.535H52.843v43.983c0 10.712 8.628 19.398 19.268 19.398z"/><path fill="#606060" d="M99.97-.03C44.727-.03-.06 44.752-.06 100c0 55.246 44.785 100.03 100.03 100.03C155.213 200.03 200 155.247 200 100 200 44.752 155.213-.03 99.97-.03zm-.31 192.152c-50.88 0-92.122-41.242-92.122-92.123 0-50.88 41.243-92.123 92.12-92.123 50.878 0 92.123 41.244 92.123 92.122 0 50.88-41.244 92.122-92.12 92.122z"/></svg>