<svg xmlns="http://www.w3.org/2000/svg" width="200" height="200" viewBox="0 0 200 200"><path fill="#606060" d="M55.593 135.78c8.97 5.75 19.62 9.104 31.065 9.104 37.626 0 58.882-31.78 57.604-60.287 3.957-2.854 7.396-6.423 10.11-10.49-3.636 1.61-7.542 2.7-11.638 3.19 4.18-2.504 7.395-6.477 8.906-11.212-3.916 2.323-8.252 4.01-12.865 4.92-3.697-3.938-8.965-6.4-14.795-6.4-13.08 0-22.693 12.208-19.74 24.884-16.843-.845-31.775-8.913-41.77-21.177-5.31 9.11-2.753 21.03 6.273 27.06-3.323-.105-6.452-1.02-9.183-2.538-.218 9.395 6.51 18.172 16.255 20.13-2.854.777-5.978.953-9.15.347 2.575 8.056 10.06 13.91 18.93 14.076-8.518 6.68-19.25 9.663-30.002 8.39z"/><path fill="#606060" d="M99.97-.03C44.727-.03-.06 44.752-.06 100c0 55.246 44.785 100.03 100.03 100.03C155.213 200.03 200 155.247 200 100 200 44.752 155.213-.03 99.97-.03zm-.31 192.152c-50.88 0-92.122-41.242-92.122-92.123 0-50.88 41.243-92.123 92.12-92.123 50.878 0 92.123 41.244 92.123 92.122 0 50.88-41.244 92.122-92.12 92.122z"/></svg>