<?xml version="1.0" encoding="utf-8"?>
<!-- Generator: Adobe Illustrator 16.0.4, SVG Export Plug-In . SVG Version: 6.00 Build 0)  -->
<!DOCTYPE svg PUBLIC "-//W3C//DTD SVG 1.1//EN" "http://www.w3.org/Graphics/SVG/1.1/DTD/svg11.dtd">
<svg version="1.1" id="Layer_1" xmlns="http://www.w3.org/2000/svg" xmlns:xlink="http://www.w3.org/1999/xlink" x="0px" y="0px"
	 width="200px" height="200px" viewBox="0 0 200 200" enable-background="new 0 0 200 200" xml:space="preserve">
<path fill="#606060" d="M99.971-0.03C44.726-0.03-0.059,44.752-0.059,100c0,55.246,44.784,100.031,100.029,100.031
	C155.213,200.031,200,155.246,200,100C200,44.752,155.213-0.03,99.971-0.03z M99.659,192.122c-50.878,0-92.121-41.242-92.121-92.123
	c0-50.878,41.243-92.122,92.121-92.122c50.877,0,92.122,41.244,92.122,92.122C191.781,150.88,150.536,192.122,99.659,192.122z"/>
<path fill="#606060" d="M85.542,156.271h22.499V99.928h15.697l1.674-18.864h-17.371c0,0,0-7.042,0-10.744
	c0-4.448,0.895-6.206,5.195-6.206c3.459,0,12.176,0,12.176,0V44.537c0,0-12.838,0-15.579,0c-16.742,0-24.291,7.374-24.291,21.487
	c0,12.294,0,15.04,0,15.04H73.839v19.101h11.703V156.271z"/>
</svg>
