<?xml version="1.0" encoding="utf-8"?>
<!-- Generator: Adobe Illustrator 16.0.4, SVG Export Plug-In . SVG Version: 6.00 Build 0)  -->
<!DOCTYPE svg PUBLIC "-//W3C//DTD SVG 1.1//EN" "http://www.w3.org/Graphics/SVG/1.1/DTD/svg11.dtd">
<svg version="1.1" id="Layer_1" xmlns="http://www.w3.org/2000/svg" xmlns:xlink="http://www.w3.org/1999/xlink" x="0px" y="0px"
	 width="200px" height="200px" viewBox="0 0 200 200" enable-background="new 0 0 200 200" xml:space="preserve">
<path fill="#606060" d="M99.718-0.03C44.472-0.03-0.312,44.752-0.312,100c0,55.246,44.784,100.031,100.03,100.031
	c55.242,0,100.029-44.785,100.029-100.031C199.747,44.752,154.96-0.03,99.718-0.03z M99.718,187.122
	c-48.117,0-87.121-39.004-87.121-87.123c0-48.117,39.004-87.122,87.121-87.122c48.115,0,87.122,39.005,87.122,87.122
	C186.84,148.118,147.833,187.122,99.718,187.122z"/>
<path fill="#606060" d="M85.542,156.271h22.499V99.928h15.697l1.674-18.864h-17.371c0,0,0-7.042,0-10.744
	c0-4.448,0.895-6.206,5.195-6.206c3.46,0,12.176,0,12.176,0V44.537c0,0-12.838,0-15.579,0c-16.742,0-24.291,7.374-24.291,21.487
	c0,12.294,0,15.04,0,15.04H73.839v19.101h11.703V156.271z"/>
</svg>
