<?xml version="1.0" encoding="utf-8"?>
<!-- Generator: Adobe Illustrator 16.0.4, SVG Export Plug-In . SVG Version: 6.00 Build 0)  -->
<!DOCTYPE svg PUBLIC "-//W3C//DTD SVG 1.1//EN" "http://www.w3.org/Graphics/SVG/1.1/DTD/svg11.dtd">
<svg version="1.1" id="Layer_1" xmlns="http://www.w3.org/2000/svg" xmlns:xlink="http://www.w3.org/1999/xlink" x="0px" y="0px"
	 width="200px" height="200px" viewBox="0 0 200 200" enable-background="new 0 0 200 200" xml:space="preserve">
<path fill="#606060" d="M101.488,75.207c6.955,0,13.24,2.867,17.762,7.489h31.014V69.955h0.004c0-10.712-8.629-19.394-19.27-19.394
	H78.343v24.451h-3.948V50.561h-2.284c-0.15,0-0.296,0.005-0.446,0.009v24.442h-3.948v-23.94c-0.959,0.227-1.889,0.52-2.782,0.885
	v23.055h-3.953V54.129c-4.92,3.51-8.14,9.287-8.14,15.826v12.741h30.891C88.255,78.074,94.538,75.207,101.488,75.207z
	 M124.861,61.779c0-1.717,1.38-3.108,3.092-3.108h10.415c1.705,0,3.092,1.391,3.092,3.108V72.5c0,1.718-1.387,3.108-3.092,3.108
	h-10.415c-1.712,0-3.092-1.391-3.092-3.108V61.779z"/>
<path fill="#606060" d="M114.137,85.767c-1.41-1.239-3-2.28-4.724-3.071c-2.415-1.107-5.101-1.727-7.925-1.727
	c-2.819,0-5.503,0.62-7.918,1.727c-1.725,0.791-3.318,1.832-4.723,3.071c-4.018,3.548-6.561,8.749-6.561,14.535
	c0,10.662,8.614,19.333,19.202,19.333c10.594,0,19.207-8.671,19.207-19.333C120.695,94.515,118.152,89.315,114.137,85.767z
	 M101.555,114.591c-7.839,0-14.193-6.397-14.193-14.29c0-7.892,6.354-14.289,14.193-14.289c7.84,0,14.193,6.397,14.193,14.289
	C115.748,108.193,109.395,114.591,101.555,114.591z"/>
<path fill="#606060" d="M72.111,149.148h58.887c10.641,0,19.27-8.688,19.27-19.398V85.767h-28.461
	c2.899,4.102,4.613,9.117,4.613,14.535c0,13.859-11.16,25.097-24.932,25.097c-13.765,0-24.926-11.236-24.926-25.097
	c0-5.417,1.711-10.433,4.615-14.535H52.843v43.983C52.843,140.462,61.471,149.148,72.111,149.148z"/>
<path fill="#606060" d="M99.971-0.03C44.726-0.03-0.059,44.752-0.059,100c0,55.246,44.784,100.031,100.029,100.031
	C155.213,200.031,200,155.246,200,100C200,44.752,155.213-0.03,99.971-0.03z M99.659,192.122c-50.878,0-92.121-41.242-92.121-92.123
	c0-50.878,41.243-92.122,92.121-92.122c50.877,0,92.122,41.244,92.122,92.122C191.781,150.88,150.536,192.122,99.659,192.122z"/>
</svg>
