<?xml version="1.0" encoding="utf-8"?>
<!-- Generator: Adobe Illustrator 16.0.4, SVG Export Plug-In . SVG Version: 6.00 Build 0)  -->
<!DOCTYPE svg PUBLIC "-//W3C//DTD SVG 1.1//EN" "http://www.w3.org/Graphics/SVG/1.1/DTD/svg11.dtd">
<svg version="1.1" id="Layer_1" xmlns="http://www.w3.org/2000/svg" xmlns:xlink="http://www.w3.org/1999/xlink" x="0px" y="0px"
	 width="200px" height="200px" viewBox="0 0 200 200" enable-background="new 0 0 200 200" xml:space="preserve">
<path fill="#606060" d="M100.354-0.649C44.946-0.649,0.03,44.265,0.03,99.675C0.03,155.084,44.946,200,100.354,200
	c55.406,0,100.326-44.916,100.326-100.325C200.681,44.265,155.761-0.649,100.354-0.649z M100.354,187.054
	c-48.259,0-87.378-39.119-87.378-87.379c0-48.259,39.119-87.378,87.378-87.378c48.256,0,87.379,39.119,87.379,87.378
	C187.733,147.935,148.61,187.054,100.354,187.054z"/>
<path fill="#606060" d="M55.593,135.78c8.969,5.75,19.621,9.106,31.065,9.106c37.626,0,58.882-31.78,57.603-60.287
	c3.958-2.854,7.395-6.423,10.111-10.491c-3.636,1.611-7.542,2.702-11.638,3.19c4.181-2.503,7.395-6.476,8.907-11.211
	c-3.916,2.323-8.253,4.011-12.866,4.921c-3.697-3.939-8.964-6.4-14.795-6.4c-13.079,0-22.693,12.207-19.74,24.883
	c-16.843-0.844-31.775-8.912-41.769-21.176c-5.31,9.111-2.754,21.029,6.272,27.059c-3.323-0.104-6.452-1.02-9.183-2.537
	c-0.218,9.393,6.509,18.172,16.255,20.13c-2.854,0.777-5.978,0.953-9.149,0.346c2.574,8.055,10.06,13.909,18.929,14.075
	C77.077,134.068,66.345,137.051,55.593,135.78z"/>
</svg>
