<?xml version="1.0" encoding="utf-8"?>
<!-- Generator: Adobe Illustrator 16.0.4, SVG Export Plug-In . SVG Version: 6.00 Build 0)  -->
<!DOCTYPE svg PUBLIC "-//W3C//DTD SVG 1.1//EN" "http://www.w3.org/Graphics/SVG/1.1/DTD/svg11.dtd">
<svg version="1.1" id="Layer_1" xmlns="http://www.w3.org/2000/svg" xmlns:xlink="http://www.w3.org/1999/xlink" x="0px" y="0px"
	 width="200px" height="200px" viewBox="0 0 200 200" enable-background="new 0 0 200 200" xml:space="preserve">
<path fill="#606060" d="M55.593,135.779c8.969,5.75,19.621,9.105,31.065,9.105c37.626,0,58.882-31.779,57.604-60.287
	c3.957-2.854,7.396-6.423,10.11-10.491c-3.636,1.611-7.542,2.702-11.638,3.19c4.181-2.503,7.395-6.476,8.906-11.211
	c-3.916,2.323-8.252,4.011-12.865,4.921c-3.697-3.939-8.965-6.4-14.795-6.4c-13.08,0-22.693,12.207-19.74,24.883
	c-16.843-0.844-31.775-8.912-41.769-21.176c-5.31,9.111-2.754,21.029,6.272,27.059c-3.323-0.104-6.452-1.02-9.183-2.537
	c-0.218,9.395,6.509,18.172,16.255,20.13c-2.854,0.777-5.978,0.953-9.149,0.347c2.574,8.056,10.06,13.91,18.929,14.076
	C77.077,134.068,66.345,137.051,55.593,135.779z"/>
<path fill="#606060" d="M99.971-0.03C44.726-0.03-0.059,44.752-0.059,100c0,55.246,44.784,100.031,100.029,100.031
	C155.213,200.031,200,155.246,200,100C200,44.752,155.213-0.03,99.971-0.03z M99.659,192.122c-50.878,0-92.121-41.242-92.121-92.123
	c0-50.878,41.243-92.122,92.121-92.122c50.877,0,92.122,41.244,92.122,92.122C191.781,150.88,150.536,192.122,99.659,192.122z"/>
</svg>
